<svg xmlns="http://www.w3.org/2000/svg" viewBox="0 0 32 32" width="32" height="32"><rect width="32" height="32" rx="8" fill="#0B0B0D"/><path d="M 16.00 4.72 C 16.33 4.45, 16.69 4.19, 17.05 4.02 C 17.41 3.85, 17.80 3.74, 18.17 3.70 C 18.54 3.67, 18.92 3.72, 19.26 3.82 C 19.61 3.92, 19.95 4.11, 20.25 4.32 C 20.55 4.54, 20.83 4.82, 21.08 5.10 C 21.34 5.38, 21.56 5.70, 21.77 6.01 C 21.97 6.33, 22.15 6.66, 22.32 6.98 C 22.49 7.30, 22.63 7.62, 22.77 7.93 C 22.91 8.24, 23.03 8.55, 23.15 8.85 C 23.27 9.15, 23.37 9.44, 23.49 9.72 C 23.61 9.99, 23.71 10.26, 23.85 10.51 C 23.98 10.75, 24.12 10.98, 24.30 11.21 C 24.48 11.43, 24.69 11.63, 24.93 11.84 C 25.17 12.04, 25.46 12.23, 25.76 12.45 C 26.07 12.66, 26.42 12.87, 26.75 13.12 C 27.09 13.37, 27.45 13.63, 27.75 13.93 C 28.05 14.23, 28.35 14.56, 28.55 14.90 C 28.74 15.25, 28.89 15.63, 28.93 16.00 C 28.97 16.37, 28.91 16.76, 28.77 17.12 C 28.64 17.47, 28.38 17.83, 28.10 18.13 C 27.81 18.44, 27.42 18.72, 27.05 18.96 C 26.68 19.21, 26.25 19.40, 25.88 19.60 C 25.51 19.79, 25.13 19.94, 24.82 20.11 C 24.51 20.29, 24.24 20.44, 24.03 20.64 C 23.82 20.84, 23.68 21.04, 23.56 21.29 C 23.44 21.54, 23.38 21.83, 23.31 22.14 C 23.25 22.45, 23.22 22.80, 23.15 23.15 C 23.08 23.50, 23.02 23.88, 22.92 24.24 C 22.81 24.61, 22.69 24.98, 22.52 25.31 C 22.35 25.65, 22.15 25.97, 21.92 26.25 C 21.69 26.54, 21.42 26.80, 21.14 27.01 C 20.85 27.23, 20.53 27.42, 20.21 27.56 C 19.88 27.71, 19.53 27.82, 19.18 27.88 C 18.83 27.95, 18.47 27.97, 18.11 27.95 C 17.75 27.93, 17.38 27.86, 17.03 27.75 C 16.68 27.64, 16.33 27.47, 16.00 27.28 C 15.67 27.08, 15.36 26.83, 15.07 26.59 C 14.79 26.34, 14.52 26.06, 14.27 25.81 C 14.02 25.56, 13.80 25.30, 13.56 25.10 C 13.33 24.90, 13.11 24.73, 12.86 24.62 C 12.61 24.51, 12.36 24.46, 12.06 24.45 C 11.76 24.44, 11.43 24.50, 11.06 24.56 C 10.69 24.61, 10.27 24.73, 9.85 24.79 C 9.42 24.85, 8.94 24.93, 8.50 24.93 C 8.06 24.94, 7.60 24.91, 7.20 24.80 C 6.81 24.69, 6.43 24.51, 6.14 24.28 C 5.84 24.04, 5.61 23.72, 5.46 23.38 C 5.31 23.04, 5.24 22.62, 5.22 22.22 C 5.21 21.82, 5.28 21.38, 5.35 20.96 C 5.43 20.55, 5.58 20.13, 5.70 19.75 C 5.82 19.37, 5.96 19.00, 6.07 18.66 C 6.18 18.32, 6.28 18.01, 6.34 17.70 C 6.40 17.40, 6.43 17.12, 6.43 16.84 C 6.44 16.55, 6.41 16.28, 6.37 16.00 C 6.33 15.72, 6.27 15.44, 6.21 15.14 C 6.14 14.85, 6.06 14.55, 5.99 14.24 C 5.92 13.92, 5.84 13.60, 5.77 13.26 C 5.70 12.92, 5.63 12.57, 5.58 12.21 C 5.53 11.85, 5.48 11.47, 5.46 11.09 C 5.45 10.71, 5.44 10.31, 5.49 9.93 C 5.54 9.55, 5.61 9.16, 5.75 8.82 C 5.88 8.48, 6.07 8.14, 6.31 7.87 C 6.55 7.60, 6.86 7.36, 7.20 7.20 C 7.54 7.04, 7.95 6.94, 8.36 6.89 C 8.76 6.84, 9.22 6.88, 9.64 6.92 C 10.07 6.97, 10.51 7.09, 10.90 7.17 C 11.30 7.26, 11.67 7.38, 12.01 7.44 C 12.34 7.49, 12.63 7.53, 12.90 7.49 C 13.18 7.45, 13.40 7.36, 13.64 7.20 C 13.88 7.04, 14.09 6.80, 14.33 6.54 C 14.57 6.28, 14.82 5.94, 15.09 5.64 C 15.37 5.34, 15.67 4.99, 16.00 4.72 Z" fill="#5B9DFF"/></svg>
